<svg xmlns="http://www.w3.org/2000/svg" width="56.55" height="37" viewBox="0 0 56.55 37"><defs><style>.a{fill:#fff;stroke:#edf0f2;}.b{fill:#008fe5;}.c{fill:#33b44a;}.d{fill:#04be04;}</style></defs><g transform="translate(-291 -24)"><rect class="a" width="55.55" height="36" rx="4" transform="translate(291.5 24.5)"/><g transform="translate(151 570.7)"><g transform="translate(146 -537.7)"><g transform="translate(0 0.895)"><path class="b" d="M280.163-459.414a.915.915,0,0,0-.677-.269.914.914,0,0,0-.878.576A1.993,1.993,0,0,0,277-459.8a2.647,2.647,0,0,0-2.064.945,3.362,3.362,0,0,0-.833,2.31,3.389,3.389,0,0,0,.833,2.31,2.647,2.647,0,0,0,2.064.945,1.993,1.993,0,0,0,1.611-.694.914.914,0,0,0,.878.576.9.9,0,0,0,.677-.274.9.9,0,0,0,.263-.666v-4.413A.873.873,0,0,0,280.163-459.414Zm-1.952,3.96a1.125,1.125,0,0,1-.945.442,1.125,1.125,0,0,1-.945-.442,1.733,1.733,0,0,1-.341-1.1,1.733,1.733,0,0,1,.341-1.1,1.125,1.125,0,0,1,.945-.442,1.125,1.125,0,0,1,.945.442,1.733,1.733,0,0,1,.341,1.1A1.744,1.744,0,0,1,278.211-455.454Z" transform="translate(-266.935 463.262)"/><path class="b" d="M398.111-511.978a.916.916,0,0,1-.671.274.9.9,0,0,1-.677-.274.9.9,0,0,1-.263-.666v-8.122a.934.934,0,0,1,.263-.666.914.914,0,0,1,.677-.269.893.893,0,0,1,.671.269.9.9,0,0,1,.263.666v8.122a.934.934,0,0,1-.263.666Z" transform="translate(-382.488 521.7)"/><path class="b" d="M444.165-458.855a3.041,3.041,0,0,0-2.3-.945,3.019,3.019,0,0,0-2.282.934,3.255,3.255,0,0,0-.884,2.321,3.255,3.255,0,0,0,.884,2.321,2.982,2.982,0,0,0,2.282.934,3.041,3.041,0,0,0,2.3-.945,3.254,3.254,0,0,0,.867-2.31A3.23,3.23,0,0,0,444.165-458.855Zm-1.354,3.4a1.125,1.125,0,0,1-.945.442,1.125,1.125,0,0,1-.945-.442,1.733,1.733,0,0,1-.341-1.1,1.733,1.733,0,0,1,.341-1.1,1.125,1.125,0,0,1,.945-.442,1.125,1.125,0,0,1,.945.442,1.733,1.733,0,0,1,.341,1.1A1.68,1.68,0,0,1,442.811-455.454Z" transform="translate(-422.328 463.262)"/><path class="b" d="M152.125-502.442a4.1,4.1,0,0,0,1-1.728c0-.688-.431-1.029-1.3-1.029h-4.559a1.246,1.246,0,0,0-.833.252.835.835,0,0,0-.3.66.835.835,0,0,0,.3.66,1.247,1.247,0,0,0,.833.252H150.4l-4,5.18a1.545,1.545,0,0,0-.392.9c0,.755.5,1.13,1.493,1.13h4.7c.75,0,1.124-.313,1.124-.945s-.375-.945-1.124-.945h-3.457l3.39-4.385Z" transform="translate(-146 506.123)"/></g><g transform="translate(23.627)"><path class="c" d="M618.436-472.1H617.2v2.567h1.236a1.193,1.193,0,0,0,.9-.364,1.285,1.285,0,0,0,.347-.923,1.3,1.3,0,0,0-.347-.923A1.2,1.2,0,0,0,618.436-472.1Z" transform="translate(-614.47 475.769)"/><path class="d" d="M728.259-427.1a1.111,1.111,0,0,0-.923.431A1.693,1.693,0,0,0,727-425.6a1.682,1.682,0,0,0,.336,1.068,1.111,1.111,0,0,0,.923.431,1.111,1.111,0,0,0,.923-.431,1.692,1.692,0,0,0,.336-1.068,1.681,1.681,0,0,0-.336-1.068A1.089,1.089,0,0,0,728.259-427.1Z" transform="translate(-718.129 433.286)"/><path class="d" d="M587.306-537.7H569.48a1.08,1.08,0,0,0-1.08,1.079v10.5a1.08,1.08,0,0,0,1.08,1.079h14.012a.656.656,0,0,1-.224-.5,1.217,1.217,0,0,1,.106-.487l.666-1.482-1.846-4.6a1.075,1.075,0,0,1-.084-.431.628.628,0,0,1,.257-.509.818.818,0,0,1,.531-.207.822.822,0,0,1,.833.593l1.147,3.143,1.231-3.143a.9.9,0,0,1,.884-.593.819.819,0,0,1,.531.207.644.644,0,0,1,.257.509,1.1,1.1,0,0,1-.084.431l-2.78,6.634a1.264,1.264,0,0,1-.268.436H587.3a1.08,1.08,0,0,0,1.08-1.079v-10.5A1.065,1.065,0,0,0,587.306-537.7Zm-12.7,7.059a3.048,3.048,0,0,1-2.131.778h-1.342v2.086a.948.948,0,0,1-.252.7.881.881,0,0,1-.654.246.9.9,0,0,1-.654-.246.939.939,0,0,1-.252-.7v-6.908a.834.834,0,0,1,.945-.945h2.137a3.152,3.152,0,0,1,2.221.805,2.7,2.7,0,0,1,.878,2.092A2.664,2.664,0,0,1,574.609-530.641Zm7.014,2.78a.89.89,0,0,1-.257.649.872.872,0,0,1-.66.263.9.9,0,0,1-.856-.565,1.961,1.961,0,0,1-1.577.677,2.6,2.6,0,0,1-2.019-.923,3.559,3.559,0,0,1-.817-2.355,3.311,3.311,0,0,1,.817-2.26,2.59,2.59,0,0,1,2.019-.923,1.961,1.961,0,0,1,1.577.677.9.9,0,0,1,.856-.565.894.894,0,0,1,.66.263.89.89,0,0,1,.257.649Z" transform="translate(-568.4 537.7)"/></g></g><g transform="translate(150.52 -522.251)"><path class="b" d="M227.846-253.251h-.291v-2.086H226.8v-.263h1.807v.263h-.755v2.086Z" transform="translate(-226.8 255.93)"/><path class="b" d="M264.3-255.044V-257.5h.285v.984h.006a.6.6,0,0,1,.576-.3.633.633,0,0,1,.464.179.646.646,0,0,1,.179.47v1.119h-.285v-1.068a.449.449,0,0,0-.117-.33.444.444,0,0,0-.324-.117.464.464,0,0,0-.358.14.517.517,0,0,0-.134.369v1.012Z" transform="translate(-262.202 257.724)"/><path class="b" d="M297.093-243.6a.634.634,0,0,1-.431-.14.478.478,0,0,1-.162-.375.433.433,0,0,1,.168-.358.928.928,0,0,1,.487-.151l.492-.028v-.145a.31.31,0,0,0-.106-.252.457.457,0,0,0-.3-.089.424.424,0,0,0-.257.073.293.293,0,0,0-.129.2h-.274a.5.5,0,0,1,.2-.375.739.739,0,0,1,.47-.151.738.738,0,0,1,.5.157.508.508,0,0,1,.185.414v1.208h-.268v-.3h-.006a.615.615,0,0,1-.229.235A.679.679,0,0,1,297.093-243.6Zm.061-.246a.516.516,0,0,0,.358-.123.4.4,0,0,0,.14-.313v-.14l-.459.028c-.268.017-.4.112-.4.28a.229.229,0,0,0,.1.2A.409.409,0,0,0,297.154-243.851Z" transform="translate(-292.601 246.301)"/><path class="b" d="M328.9-243.527v-1.756h.268V-245h.006a.6.6,0,0,1,.576-.3.6.6,0,0,1,.459.173.658.658,0,0,1,.168.475v1.124h-.285V-244.6a.462.462,0,0,0-.112-.33.412.412,0,0,0-.319-.112.455.455,0,0,0-.347.134.491.491,0,0,0-.129.364v1.018Z" transform="translate(-323.189 246.206)"/><path class="b" d="M362.2-255.044V-257.5h.285v.984h.006a.6.6,0,0,1,.576-.3.633.633,0,0,1,.464.179.646.646,0,0,1,.179.47v1.119h-.285v-1.068a.449.449,0,0,0-.117-.33.444.444,0,0,0-.324-.117.464.464,0,0,0-.358.14.517.517,0,0,0-.134.369v1.012Z" transform="translate(-354.626 257.724)"/><path class="b" d="M407.646-252h.285v.4h.341v.235h-.341v1.052a.273.273,0,0,0,.05.179.21.21,0,0,0,.168.056.791.791,0,0,0,.123-.006v.241a.733.733,0,0,1-.185.017.454.454,0,0,1-.341-.106.524.524,0,0,1-.1-.364v-1.063H407.4v-.235h.246v-.4Z" transform="translate(-397.298 252.531)"/><path class="b" d="M427.693-243.656a.747.747,0,0,1-.587.241.748.748,0,0,1-.587-.241.939.939,0,0,1-.218-.649.944.944,0,0,1,.218-.654.748.748,0,0,1,.587-.241.747.747,0,0,1,.587.241.944.944,0,0,1,.218.654A.913.913,0,0,1,427.693-243.656Zm-.587-.011a.48.48,0,0,0,.386-.168.735.735,0,0,0,.14-.47.7.7,0,0,0-.14-.47.465.465,0,0,0-.386-.168.48.48,0,0,0-.386.168.735.735,0,0,0-.14.47.7.7,0,0,0,.14.47A.48.48,0,0,0,427.105-243.667Z" transform="translate(-415.141 246.112)"/><path class="b" d="M459.693-256.161a.634.634,0,0,1-.431-.14.478.478,0,0,1-.162-.375.433.433,0,0,1,.168-.358.928.928,0,0,1,.487-.151l.492-.028v-.145a.31.31,0,0,0-.106-.252.457.457,0,0,0-.3-.089.424.424,0,0,0-.257.073.293.293,0,0,0-.129.2h-.274a.5.5,0,0,1,.2-.375.739.739,0,0,1,.47-.151.738.738,0,0,1,.5.157.509.509,0,0,1,.185.414v1.208h-.269v-.3h-.006a.615.615,0,0,1-.229.235A.7.7,0,0,1,459.693-256.161Zm.056-.246a.516.516,0,0,0,.358-.123.4.4,0,0,0,.14-.313v-.14l-.459.028c-.269.017-.4.112-.4.28a.229.229,0,0,0,.1.2A.43.43,0,0,0,459.749-256.407Zm.213-1.807h-.24l.341-.487h.324Z" transform="translate(-446.106 258.857)"/><path class="b" d="M491.4-243.527v-1.756h.268V-245h.006a.6.6,0,0,1,.576-.3.6.6,0,0,1,.459.173.658.658,0,0,1,.168.475v1.124h-.285V-244.6a.462.462,0,0,0-.112-.33.412.412,0,0,0-.319-.112.455.455,0,0,0-.347.134.491.491,0,0,0-.129.364v1.018Z" transform="translate(-476.6 246.206)"/><path class="b" d="M536.246-252h.285v.4h.341v.235h-.341v1.052a.274.274,0,0,0,.05.179.21.21,0,0,0,.168.056.792.792,0,0,0,.123-.006v.241a.733.733,0,0,1-.185.017.454.454,0,0,1-.341-.106.524.524,0,0,1-.1-.364v-1.063H536v-.235h.246Z" transform="translate(-518.705 252.531)"/><path class="b" d="M557.2-243.527v-1.756h.268V-245h.006a.372.372,0,0,1,.157-.218.45.45,0,0,1,.268-.084.63.63,0,0,1,.112.011v.28a.412.412,0,0,0-.145-.022.362.362,0,0,0-.274.112.441.441,0,0,0-.106.3v1.085H557.2Z" transform="translate(-538.719 246.206)"/><path class="b" d="M574.593-243.656a.747.747,0,0,1-.587.241.747.747,0,0,1-.587-.241.938.938,0,0,1-.218-.649.944.944,0,0,1,.218-.654.747.747,0,0,1,.587-.241.747.747,0,0,1,.587.241.944.944,0,0,1,.218.654A.912.912,0,0,1,574.593-243.656Zm-.587-.011a.48.48,0,0,0,.386-.168.735.735,0,0,0,.14-.47.7.7,0,0,0-.14-.47.466.466,0,0,0-.386-.168.48.48,0,0,0-.386.168.734.734,0,0,0-.14.47.7.7,0,0,0,.14.47A.48.48,0,0,0,574.005-243.667Z" transform="translate(-553.824 246.112)"/><path class="b" d="M607.4-243.527v-1.756h.268V-245h.006a.6.6,0,0,1,.576-.3.6.6,0,0,1,.459.173.658.658,0,0,1,.168.475v1.124h-.285V-244.6a.462.462,0,0,0-.112-.33.412.412,0,0,0-.319-.112.455.455,0,0,0-.347.134.491.491,0,0,0-.129.364v1.018Z" transform="translate(-586.111 246.206)"/><path class="b" d="M639.794-242.895a.87.87,0,0,1-.5-.134.5.5,0,0,1-.229-.352h.3a.3.3,0,0,0,.151.173.6.6,0,0,0,.3.062.564.564,0,0,0,.364-.112.364.364,0,0,0,.134-.3v-.274H640.3a.628.628,0,0,1-.229.224.718.718,0,0,1-.33.078.648.648,0,0,1-.537-.246.976.976,0,0,1-.207-.643.947.947,0,0,1,.207-.643.671.671,0,0,1,.543-.241.742.742,0,0,1,.336.078.567.567,0,0,1,.235.224h.006v-.285h.269v1.706a.635.635,0,0,1-.213.5A.88.88,0,0,1,639.794-242.895Zm-.006-.884a.454.454,0,0,0,.375-.173.7.7,0,0,0,.14-.459.735.735,0,0,0-.14-.459.454.454,0,0,0-.375-.173.451.451,0,0,0-.369.173.707.707,0,0,0-.14.464.691.691,0,0,0,.14.459A.462.462,0,0,0,639.789-243.779Z" transform="translate(-615.944 246.206)"/><path class="b" d="M688.7-260.695a.77.77,0,0,1,.246-.576.9.9,0,0,1,.621-.229.863.863,0,0,1,.6.213.66.66,0,0,1,.246.515.777.777,0,0,1-.123.42,3.181,3.181,0,0,1-.453.548l-.666.688v.006h1.281v.291h-1.734v-.224l.929-.979a2.947,2.947,0,0,0,.352-.425.607.607,0,0,0,.084-.308.416.416,0,0,0-.151-.324.536.536,0,0,0-.369-.134.541.541,0,0,0-.386.145.486.486,0,0,0-.157.369h0l-.319.006Z" transform="translate(-662.864 261.5)"/><path class="b" d="M739.994-242.895a.87.87,0,0,1-.5-.134.5.5,0,0,1-.229-.352h.3a.3.3,0,0,0,.151.173.6.6,0,0,0,.3.062.564.564,0,0,0,.364-.112.364.364,0,0,0,.134-.3v-.274H740.5a.629.629,0,0,1-.229.224.718.718,0,0,1-.33.078.648.648,0,0,1-.537-.246.975.975,0,0,1-.207-.643.946.946,0,0,1,.207-.643.671.671,0,0,1,.543-.241.741.741,0,0,1,.336.078.567.567,0,0,1,.235.224h.006v-.285h.268v1.706a.634.634,0,0,1-.213.5A.879.879,0,0,1,739.994-242.895Zm0-.884a.454.454,0,0,0,.375-.173.7.7,0,0,0,.14-.459.7.7,0,0,0-.14-.459.454.454,0,0,0-.375-.173.451.451,0,0,0-.369.173.74.74,0,0,0-.14.464.691.691,0,0,0,.14.459A.447.447,0,0,0,739.994-243.779Z" transform="translate(-710.539 246.206)"/><path class="b" d="M774.279-256.042a.186.186,0,0,1-.129-.05.177.177,0,0,1-.05-.129.177.177,0,0,1,.05-.129.177.177,0,0,1,.129-.05.177.177,0,0,1,.129.05.177.177,0,0,1,.05.129.187.187,0,0,1-.05.129A.177.177,0,0,1,774.279-256.042Zm-.14,2.036v-1.756h.285v1.756Z" transform="translate(-743.487 256.685)"/><path class="b" d="M786.193-256.161a.634.634,0,0,1-.431-.14.478.478,0,0,1-.162-.375.433.433,0,0,1,.168-.358.928.928,0,0,1,.487-.151l.492-.028v-.145a.31.31,0,0,0-.106-.252.457.457,0,0,0-.3-.089.424.424,0,0,0-.257.073.293.293,0,0,0-.129.2h-.274a.5.5,0,0,1,.2-.375.739.739,0,0,1,.47-.151.738.738,0,0,1,.5.157.509.509,0,0,1,.185.414v1.208h-.268v-.3h-.006a.614.614,0,0,1-.229.235A.679.679,0,0,1,786.193-256.161Zm.252-2.539.453.487h-.263l-.28-.319h-.011l-.28.319H785.8l.453-.487Zm-.19,2.293a.517.517,0,0,0,.358-.123.4.4,0,0,0,.14-.313v-.14l-.459.028c-.268.017-.4.112-.4.28a.229.229,0,0,0,.1.2A.408.408,0,0,0,786.254-256.407Z" transform="translate(-754.343 258.857)"/><path class="b" d="M815.6-242.606a.84.84,0,0,1-.123-.011v-.241a.7.7,0,0,0,.118.011.277.277,0,0,0,.2-.067.547.547,0,0,0,.129-.224l.034-.106L815.3-245h.3l.492,1.465h.006l.492-1.465h.3l-.688,1.863a1.085,1.085,0,0,1-.241.419A.509.509,0,0,1,815.6-242.606Z" transform="translate(-782.382 245.923)"/></g></g></g></svg>